<svg viewBox="0 0 600 400" xmlns="http://www.w3.org/2000/svg">
  <defs>
    <linearGradient id="bg" x1="0%" y1="0%" x2="100%" y2="100%">
      <stop offset="0%" style="stop-color:#667eea;stop-opacity:0.1" />
      <stop offset="100%" style="stop-color:#764ba2;stop-opacity:0.1" />
    </linearGradient>
    <linearGradient id="screen" x1="0%" y1="0%" x2="100%" y2="100%">
      <stop offset="0%" style="stop-color:#f8fafc" />
      <stop offset="100%" style="stop-color:#e2e8f0" />
    </linearGradient>
  </defs>
  
  <!-- Background -->
  <rect width="600" height="400" fill="url(#bg)" rx="20"/>
  
  <!-- Laptop -->
  <g transform="translate(150, 80)">
    <!-- Laptop base -->
    <rect x="0" y="200" width="300" height="20" rx="10" fill="#374151"/>
    <rect x="20" y="210" width="260" height="15" rx="8" fill="#6b7280"/>
    
    <!-- Laptop screen -->
    <rect x="50" y="20" width="200" height="180" rx="10" fill="#1f2937"/>
    <rect x="60" y="30" width="180" height="140" rx="5" fill="url(#screen)"/>
    
    <!-- Screen content -->
    <rect x="70" y="40" width="40" height="6" rx="3" fill="#667eea"/>
    <rect x="70" y="55" width="80" height="4" rx="2" fill="#e5e7eb"/>
    <rect x="70" y="65" width="60" height="4" rx="2" fill="#e5e7eb"/>
    
    <!-- Cards on screen -->
    <rect x="70" y="80" width="50" height="40" rx="4" fill="white" stroke="#e5e7eb"/>
    <rect x="130" y="80" width="50" height="40" rx="4" fill="white" stroke="#e5e7eb"/>
    <rect x="70" y="130" width="50" height="40" rx="4" fill="white" stroke="#e5e7eb"/>
    <rect x="130" y="130" width="50" height="40" rx="4" fill="white" stroke="#e5e7eb"/>
  </g>
  
  <!-- People collaboration -->
  <!-- Person 1 -->
  <g transform="translate(100, 220)">
    <circle cx="20" cy="20" r="15" fill="#fbbf24"/>
    <rect x="5" y="30" width="30" height="40" rx="15" fill="#3b82f6"/>
  </g>
  
  <!-- Person 2 -->
  <g transform="translate(250, 210)">
    <circle cx="20" cy="20" r="15" fill="#f472b6"/>
    <rect x="5" y="30" width="30" height="40" rx="15" fill="#10b981"/>
  </g>
  
  <!-- Person 3 -->
  <g transform="translate(400, 230)">
    <circle cx="20" cy="20" r="15" fill="#8b5cf6"/>
    <rect x="5" y="30" width="30" height="40" rx="15" fill="#f59e0b"/>
  </g>
  
  <!-- Collaboration lines -->
  <line x1="120" y1="240" x2="270" y2="230" stroke="#667eea" stroke-width="2" stroke-dasharray="5,5" opacity="0.6"/>
  <line x1="270" y1="230" x2="420" y2="250" stroke="#667eea" stroke-width="2" stroke-dasharray="5,5" opacity="0.6"/>
  
  <!-- Floating elements -->
  <circle cx="80" cy="60" r="4" fill="#ff6b6b" opacity="0.8"/>
  <circle cx="520" cy="100" r="6" fill="#4ecdc4" opacity="0.8"/>
  <circle cx="450" cy="180" r="3" fill="#ffe66d" opacity="0.8"/>
  <rect x="70" y="320" width="8" height="8" rx="2" fill="#a8e6cf" opacity="0.8"/>
  <rect x="480" y="320" width="6" height="6" rx="1" fill="#ffaaa5" opacity="0.8"/>
</svg>
